<?xml version="1.0" encoding="utf-8"?>
<!--
 ~   Copyright (c) 2017 WSO2 Inc. (http://wso2.com) All Rights Reserved.
 ~
 ~   Licensed under the Apache License, Version 2.0 (the "License");
 ~   you may not use this file except in compliance with the License.
 ~   You may obtain a copy of the License at
 ~
 ~        http://www.apache.org/licenses/LICENSE-2.0
 ~
 ~   Unless required by applicable law or agreed to in writing, software
 ~   distributed under the License is distributed on an "AS IS" BASIS,
 ~   WITHOUT WARRANTIES OR CONDITIONS OF ANY KIND, either express or implied.
 ~   See the License for the specific language governing permissions and
 ~   limitations under the License.
-->
<svg version="1.1" id="dblookupmediator" xmlns="http://www.w3.org/2000/svg" xmlns:xlink="http://www.w3.org/1999/xlink" x="0px"
	 y="0px" viewBox="0 0 14 14" style="enable-background:new 0 0 14 14;" xml:space="preserve">
<path d="M9.7800293,5.5100098c0.6499634,0.1399536,1.289978,0.3299561,1.8499756,0.6599731
	c0.1099854,0.0599976,0.2199707,0.1300049,0.289978,0.2299805C11.9899902,6.5,12.0200195,6.6300049,11.960022,6.7299805
	c-0.0400391,0.0800171-0.1199951,0.1300049-0.1900024,0.1799927c-0.6500244,0.3900146-1.4100342,0.6000366-2.1700439,0.7399902
	C9.0800171,7.75,8.5599976,7.8099976,8.0300293,7.8499756V7.5499878V5.3099976
	c1.1199951,0.039978,1.6499634,0.1799927,1.6499634,0.1799927C9.710022,5.5,9.75,5.5,9.7800293,5.5100098z M6.4699707,7.5499878
	h1.0600586v-2.25V4.0700073h1.2299805L7,2.3099976L5.2399902,4.0700073h1.2299805v1.25V7.5499878z M9.7800293,3.5199585
	l1.7599487-1.7599487L9.7800293,0v1.2299805H2.460022V2.289978h7.3200073V3.5199585z M6.8900146,11.7000122
	c-3.7000122-0.0700073-4.8500366-0.9200439-4.8500366-0.9200439s-0.0199585,1.8600464,0,2.0800171
	c1.7000122,1.2999878,5.1600342,1.1599731,5.7800293,1.1300049c1.3200073-0.0700073,3.0700073-0.3200073,4.1400146-1.1400146
	c0.0199585-0.2099609,0-2.0700073,0-2.0700073S10.7600098,11.6599731,6.8900146,11.7000122z M6.8900146,8.6599731
	C3.1900024,8.5899658,2.039978,7.7299805,2.039978,7.7299805s-0.0199585,1.8699951,0,2.0800171
	c1.7000122,1.3099976,5.1600342,1.1699829,5.7800293,1.1300049c1.3200073-0.0599976,3.0700073-0.3099976,4.1400146-1.1300049
	c0.0199585-0.2200317,0-2.0800171,0-2.0800171S10.7600098,8.6199951,6.8900146,8.6599731z M2.1699829,6.8599854
	c0.1600342,0.1099854,0.3400269,0.210022,0.5200195,0.2999878c0.1900024,0.0800171,0.3800049,0.1500244,0.5800171,0.2200317
	C3.4699707,7.4400024,3.6699829,7.4899902,3.8699951,7.539978c0.6900024,0.1600342,1.3900146,0.2700195,2.0999756,0.3099976
	V7.5499878v-2.210022C5.4799805,5.3800049,4.9299927,5.4299927,4.3300171,5.5c-0.5,0.0899658-1,0.2299805-1.4700317,0.4199829
	C2.710022,5.9899902,2.5599976,6.0599976,2.4099731,6.1400146C2.289978,6.2000122,2.1699829,6.2799683,2.0900269,6.3800049
	c-0.0100098,0.0100098-0.0200195,0.0299683-0.0300293,0.039978C2.0200195,6.5,1.9899902,6.5999756,2.0200195,6.6799927
	C2.0300293,6.7099609,2.0300293,6.75,2.0499878,6.7699585C2.0800171,6.7999878,2.1300049,6.8299561,2.1699829,6.8599854z"/>
</svg>
