<?xml version="1.0" encoding="utf-8"?>
<!--
 ~   Copyright (c) 2017 WSO2 Inc. (http://wso2.com) All Rights Reserved.
 ~
 ~   Licensed under the Apache License, Version 2.0 (the "License");
 ~   you may not use this file except in compliance with the License.
 ~   You may obtain a copy of the License at
 ~
 ~        http://www.apache.org/licenses/LICENSE-2.0
 ~
 ~   Unless required by applicable law or agreed to in writing, software
 ~   distributed under the License is distributed on an "AS IS" BASIS,
 ~   WITHOUT WARRANTIES OR CONDITIONS OF ANY KIND, either express or implied.
 ~   See the License for the specific language governing permissions and
 ~   limitations under the License.
-->
<svg version="1.1" id="ejbmediator" xmlns="http://www.w3.org/2000/svg" xmlns:xlink="http://www.w3.org/1999/xlink" x="0px"
	 y="0px" viewBox="0 0 14 14" style="enable-background:new 0 0 14 14;" xml:space="preserve">
<path d="M2.8966064,4.6948547H0v5.171875h2.8966064V4.6948547z M2.3307495,9.3008728H0.5658569V5.2607117h1.7648926
	V9.3008728z M14.0078125,4.7026672v5.171875h-3.078125v-5.171875H14.0078125z M8.4887695,2.2640076
	C8.425415,2.1896057,8.3241577,2.127655,8.2354736,2.0532532L8.1720581,1.9911804
	C8.1087646,1.954071,8.0327759,1.9292297,7.9694214,1.9292297H7.4880371H2.6488647H1.6100464
	c-0.1646729,0-0.2913208,0.1116333-0.3167114,0.260376C1.2680664,2.3507996,1.3693237,2.4995422,1.5339966,2.5367126
	c0.0126953,0,0.1140747,0.0372314,0.3421021,0.1488037c0.0253296,0.0123901,0.1265869,0.0743408,0.1646729,0.086792
	c1.2667847,1.0042114,2.0015869,2.5663452,2.0015869,4.2277222c0,1.6861572-0.7601318,3.2606812-2.0142822,4.215271
	c-0.0505981,0.0372314-0.4307251,0.2355957-0.4940796,0.260437c-0.1392822,0.0619507-0.215271,0.2106934-0.1900024,0.347168
	c0.0380249,0.1487427,0.1647949,0.2478638,0.3040771,0.2478638h0.3546143h0.6714478h5.2698975
	c0.0760498,0,0.1394043-0.0123901,0.1900635-0.0619507c0.1266479-0.086792,0.2407227-0.173584,0.3546753-0.2727051
	c1.3428345-1.140686,2.1156006-2.8639526,2.1156006-4.736084C10.6043701,5.1279602,9.831604,3.4045715,8.4887695,2.2640076z
	 M7.7540894,11.1905823H3.34552c1.0008545-1.1034546,1.5709229-2.6036377,1.5709229-4.1905518
	c0-1.5993652-0.5700684-3.0870972-1.5709229-4.1904907h4.4212036c1.2415161,0.96698,1.963562,2.5167236,1.963562,4.1904907
	C9.7302856,8.6737366,8.9955444,10.2359314,7.7540894,11.1905823z M6.3911133,5.3711243v1.2285156h1.7397461v0.7495117H6.3911133
	v1.4375h1.9389648v0.7568359H5.5634766V4.6142883h2.6669922v0.7568359H6.3911133z"/>
</svg>
