<?xml version="1.0" encoding="utf-8"?>
<!--
 ~   Copyright (c) 2017 WSO2 Inc. (http://wso2.com) All Rights Reserved.
 ~
 ~   Licensed under the Apache License, Version 2.0 (the "License");
 ~   you may not use this file except in compliance with the License.
 ~   You may obtain a copy of the License at
 ~
 ~        http://www.apache.org/licenses/LICENSE-2.0
 ~
 ~   Unless required by applicable law or agreed to in writing, software
 ~   distributed under the License is distributed on an "AS IS" BASIS,
 ~   WITHOUT WARRANTIES OR CONDITIONS OF ANY KIND, either express or implied.
 ~   See the License for the specific language governing permissions and
 ~   limitations under the License.
-->
<svg version="1.1" id="fastxsltmediator" xmlns="http://www.w3.org/2000/svg" xmlns:xlink="http://www.w3.org/1999/xlink" x="0px" y="0px"
	 viewBox="0 0 14 14" style="enable-background:new 0 0 14 14;" xml:space="preserve">
<path d="M2.8966064,2.765625H0V7.9375h2.8966064V2.765625z M2.3307495,7.3716431H0.5658569V3.3314819h1.7648926
	V7.3716431z M6.2315063,4.5500488h2.5194092c0.1552124,0,0.2985229,0.1488647,0.2985229,0.3099365
	c0,0.173584-0.1433105,0.3099365-0.2985229,0.3099365H6.2315063c-0.1671753,0-0.2985229-0.1363525-0.2985229-0.3099365
	C5.9329834,4.6989136,6.0643311,4.5500488,6.2315063,4.5500488z M5.3479614,2.6903687
	c-0.1671753,0-0.2985229-0.1363525-0.2985229-0.3099976c0-0.1610718,0.1313477-0.3099365,0.2985229-0.3099365h2.5194092
	c0.1552124,0,0.2984619,0.1488647,0.2984619,0.3099365c0,0.173645-0.1432495,0.3099976-0.2984619,0.3099976H5.3479614z
	 M7.9628906,7.6495361H5.4554443c-0.1671753,0-0.2985229-0.1363525-0.2985229-0.3099365
	c0-0.1611328,0.1313477-0.3099365,0.2985229-0.3099365h2.5074463c0.1671753,0,0.2985229,0.1488037,0.2985229,0.3099365
	C8.2614136,7.5131836,8.1300659,7.6495361,7.9628906,7.6495361z M14.0078125,2.7734375v5.171875h-3.078125v-5.171875H14.0078125z
	 M2.0046387,10.1415405h0.3342896h0.6328735h4.9671631c0.0716553,0,0.1314087-0.0123901,0.1791382-0.0619507
	c0.1193848-0.086792,0.2268677-0.173584,0.3342896-0.2727051c1.265686-1.140686,1.9940796-2.8639526,1.9940796-4.736084
	c0-1.8720703-0.7283936-3.595459-1.9940796-4.7360229C8.3927002,0.260376,8.2972412,0.1984253,8.2136841,0.1240234
	L8.1538696,0.0619507C8.0942383,0.0248413,8.022583,0,7.9628906,0H7.5091553H2.947937H1.968811
	C1.8135986,0,1.6942139,0.1116333,1.6702881,0.260376C1.6464844,0.4215698,1.7419434,0.5703125,1.8971558,0.6074829
	c0.0119629,0,0.1074829,0.0372314,0.3224487,0.1488037c0.0238647,0.0123901,0.1193237,0.0743408,0.1552124,0.086792
	C3.5688477,1.84729,4.2614136,3.4094238,4.2614136,5.0708008c0,1.6861572-0.7164917,3.2606812-1.8985596,4.215271
	c-0.0477295,0.0372314-0.4060059,0.2355957-0.4656982,0.260437c-0.1312866,0.0619507-0.2029419,0.2106934-0.1790771,0.347168
	C1.7539062,10.0424194,1.8733521,10.1415405,2.0046387,10.1415405z M5.0852661,5.0708008
	c0-1.5993652-0.5372925-3.0870972-1.4806519-4.1904907h4.1672363c1.170166,0.96698,1.850769,2.5167236,1.850769,4.1904907
	c0,1.6737061-0.6925659,3.2359009-1.8626709,4.1905518H3.6046143C4.5479736,8.1578979,5.0852661,6.6577148,5.0852661,5.0708008z
	 M10.4234619,10.4810791l1.7594604,1.7594604L10.4234619,14v-1.2255249H1.8170776V11.706604h8.6063843V10.4810791z"/>
</svg>
