<?xml version="1.0" encoding="utf-8"?>
<!--
 ~   Copyright (c) 2017 WSO2 Inc. (http://wso2.com) All Rights Reserved.
 ~
 ~   Licensed under the Apache License, Version 2.0 (the "License");
 ~   you may not use this file except in compliance with the License.
 ~   You may obtain a copy of the License at
 ~
 ~        http://www.apache.org/licenses/LICENSE-2.0
 ~
 ~   Unless required by applicable law or agreed to in writing, software
 ~   distributed under the License is distributed on an "AS IS" BASIS,
 ~   WITHOUT WARRANTIES OR CONDITIONS OF ANY KIND, either express or implied.
 ~   See the License for the specific language governing permissions and
 ~   limitations under the License.
-->
<svg version="1.1" id="loopbackmediator" xmlns="http://www.w3.org/2000/svg" xmlns:xlink="http://www.w3.org/1999/xlink" x="0px" y="0px"
	 viewBox="0 0 14 14" style="enable-background:new 0 0 14 14;" xml:space="preserve">
<path d="M14,7.1259017c0,1.6841788-1.0756054,3.1630082-2.6765099,3.6798759
	c-0.3821325,0.1240997-0.7828875,0.187151-1.1905165,0.187151c-0.0734186,0-0.1465397-0.0027733-0.2194881-0.0068579
	c0.0455809,0.0470381,0.0899096,0.0928354,0.1324091,0.1367416c0.1052113,0.1086597,0.2010555,0.2077084,0.2806368,0.2891808
	l0.0774679,0.0793362l-0.6829929,0.7038403L7.6907139,9.975791l2.0961018-1.9645491l0.7851124,0.6610346l-0.1021633,0.0872564
	c-0.2513533,0.2146215-0.5561819,0.4742622-0.8482656,0.7203064c0.1667461,0.0362091,0.3375893,0.0550394,0.5114746,0.0550394
	c0.325222,0,0.6401663-0.063674,0.9361095-0.1892872c0.8948402-0.378973,1.472867-1.2502518,1.472867-2.2196898
	c0-1.3282986-1.0806551-2.4089766-2.4089766-2.4089766c-1.2840033,0-2.3407421,1.0036106-2.4057732,2.2848325L7.7096243,7.3478041
	H7.690402c-0.0705709,0.468945-0.2263293,0.9156418-0.464829,1.3317699c-0.6874433,1.2019739-1.9742718,1.948842-3.3581016,1.948842
	C1.7349492,10.6284161,0,8.8936892,0,6.7613893C0,5.0778332,1.0757611,3.599004,2.6768658,3.0815136
	C3.059021,2.9573696,3.4597754,2.8943629,3.8674715,2.8943629c0.1217079,0,0.2426932,0.0063186,0.3628881,0.0175204
	C4.2201257,2.9016159,4.2096772,2.8911343,4.199635,2.8810587C4.0931559,2.7742233,3.9961543,2.6768658,3.9155941,2.5967283
	L3.8369694,2.5185485l0.672648-0.7137181L6.572125,3.9943078L4.5049901,5.989337L3.7102888,5.3397374l0.1008949-0.0886807
	c0.2567122-0.2257481,0.5697982-0.5003924,0.8668101-0.7578974C4.4182115,4.3998899,4.1462317,4.3524127,3.8674715,4.3524127
	c-0.3242879,0-0.6393652,0.0637183-0.936466,0.1894646c-0.8947062,0.3791518-1.4729558,1.2503862-1.4729558,2.219512
	c0,1.328299,1.080856,2.408977,2.4094219,2.408977c1.2649143,0,2.3206074-0.9877701,2.4033701-2.2487907L6.293201,6.5809574
	h0.0112352C6.3731384,6.098753,6.5330577,5.6298079,6.7742486,5.2080288
	c0.6881552-1.2023301,1.9751172-1.9491534,3.3587251-1.9491534C12.2652512,3.2588754,14,4.9936023,14,7.1259017z"/>
</svg>
