<?xml version="1.0" encoding="utf-8"?>
<!--
 ~   Copyright (c) 2017 WSO2 Inc. (http://wso2.com) All Rights Reserved.
 ~
 ~   Licensed under the Apache License, Version 2.0 (the "License");
 ~   you may not use this file except in compliance with the License.
 ~   You may obtain a copy of the License at
 ~
 ~        http://www.apache.org/licenses/LICENSE-2.0
 ~
 ~   Unless required by applicable law or agreed to in writing, software
 ~   distributed under the License is distributed on an "AS IS" BASIS,
 ~   WITHOUT WARRANTIES OR CONDITIONS OF ANY KIND, either express or implied.
 ~   See the License for the specific language governing permissions and
 ~   limitations under the License.
-->
<svg version="1.1" id="pojocommandmediator" xmlns="http://www.w3.org/2000/svg" xmlns:xlink="http://www.w3.org/1999/xlink" x="0px" y="0px"
	 viewBox="0 0 14 14" style="enable-background:new 0 0 14 14;" xml:space="preserve">
<path d="M2.8927002,4.6948242h-2.8966064v5.171875h2.8966064V4.6948242z M2.3268433,9.3008423H0.5619507V5.2606812h1.7648926
	V9.3008423z M8.4848633,2.2639771C8.4215088,2.1895752,8.3202515,2.1276245,8.2315674,2.0532227L8.1681519,1.9911499
	C8.1048584,1.9540405,8.0288696,1.9291992,7.9655151,1.9291992H7.4841309H2.6449585H1.6061401
	c-0.1646729,0-0.2913208,0.1116333-0.3167114,0.260376C1.2641602,2.350769,1.3654175,2.4995117,1.5300903,2.5366821
	c0.0126953,0,0.1140747,0.0372314,0.3421021,0.1488037C1.897522,2.697876,1.9987793,2.7598267,2.0368652,2.7722778
	C3.3036499,3.7764893,4.0384521,5.338623,4.0384521,7c0,1.6861572-0.7601318,3.2606812-2.0142822,4.215271
	c-0.0505981,0.0372314-0.4307251,0.2355957-0.4940796,0.260437c-0.1392822,0.0619507-0.215271,0.2106934-0.1900024,0.347168
	c0.0380249,0.1487427,0.1647949,0.2478638,0.3040771,0.2478638h0.3546143h0.6714478h5.2698975
	c0.0760498,0,0.1394043-0.0123901,0.1900635-0.0619507c0.1266479-0.086792,0.2407227-0.173584,0.3546753-0.2727051
	C9.8276978,10.5953979,10.6004639,8.8721313,10.6004639,7C10.6004639,5.1279297,9.8276978,3.404541,8.4848633,2.2639771z
	 M7.7501831,11.1905518H3.3416138C4.3424683,10.0870972,4.9125366,8.5869141,4.9125366,7
	c0-1.5993652-0.5700684-3.0870972-1.5709229-4.1904907h4.4212036C9.0043335,3.7764893,9.7263794,5.3262329,9.7263794,7
	C9.7263794,8.6737061,8.9916382,10.2359009,7.7501831,11.1905518z M14.0039062,4.7026367v5.171875h-3.078125v-5.171875H14.0039062z
	 M5.5376587,4.3166504L5.2832642,4.3591309v5.4233398h1.2439575V7.8514404
	c0.8088989,0.0344849,1.5114136-0.1842041,1.9280396-0.6281738c0.309021-0.3179932,0.4659424-0.7432251,0.4659424-1.2633057
	c0-0.5131836-0.1901855-0.960144-0.531311-1.255249c-0.3590088-0.3233032-0.8921509-0.4870605-1.583313-0.4870605
	C6.3583984,4.2176514,5.9317017,4.2509766,5.5376587,4.3166504z M7.6778564,5.9890747
	c0,0.4957275-0.3126221,0.7468262-0.9295654,0.7468262c-0.0820312,0-0.1557007-0.0023804-0.2210693-0.0071411V5.3400879
	c0.0808105-0.0062256,0.178894-0.0101318,0.2941895-0.0101318C7.6778564,5.3299561,7.6778564,5.8259277,7.6778564,5.9890747z"/>
</svg>
