<?xml version="1.0" encoding="utf-8"?>
<!--
 ~   Copyright (c) 2017 WSO2 Inc. (http://wso2.com) All Rights Reserved.
 ~
 ~   Licensed under the Apache License, Version 2.0 (the "License");
 ~   you may not use this file except in compliance with the License.
 ~   You may obtain a copy of the License at
 ~
 ~        http://www.apache.org/licenses/LICENSE-2.0
 ~
 ~   Unless required by applicable law or agreed to in writing, software
 ~   distributed under the License is distributed on an "AS IS" BASIS,
 ~   WITHOUT WARRANTIES OR CONDITIONS OF ANY KIND, either express or implied.
 ~   See the License for the specific language governing permissions and
 ~   limitations under the License.
-->
<svg version="1.1" id="scriptmediator" xmlns="http://www.w3.org/2000/svg" xmlns:xlink="http://www.w3.org/1999/xlink" x="0px"
	 y="0px" viewBox="0 0 14 14" style="enable-background:new 0 0 14 14;" xml:space="preserve">
<path d="M8.4887695,2.2639771C8.425415,2.1895752,8.3241577,2.1276245,8.2354736,2.0532227L8.1720581,1.9911499
	C8.1087646,1.9540405,8.0327759,1.9291992,7.9694214,1.9291992H7.4880371H2.6488647H1.6100464
	c-0.1646729,0-0.2913208,0.1116333-0.3167114,0.260376C1.2680664,2.350769,1.3693237,2.4995117,1.5339966,2.5366821
	c0.0126953,0,0.1140747,0.0372314,0.3421021,0.1488037c0.0253296,0.0123901,0.1265869,0.0743408,0.1646729,0.086792
	C3.3075562,3.7764893,4.0423584,5.338623,4.0423584,7c0,1.6861572-0.7601318,3.2606812-2.0142822,4.215271
	c-0.0505981,0.0372314-0.4307251,0.2355957-0.4940796,0.260437c-0.1392822,0.0619507-0.215271,0.2106934-0.1900024,0.347168
	c0.0380249,0.1487427,0.1647949,0.2478638,0.3040771,0.2478638h0.3546143h0.6714478h5.2698975
	c0.0760498,0,0.1394043-0.0123901,0.1900635-0.0619507c0.1266479-0.086792,0.2407227-0.173584,0.3546753-0.2727051
	C9.831604,10.5953979,10.6043701,8.8721313,10.6043701,7C10.6043701,5.1279297,9.831604,3.404541,8.4887695,2.2639771z
	 M7.7540894,11.1905518H3.34552C4.3463745,10.0870972,4.9164429,8.5869141,4.9164429,7
	c0-1.5993652-0.5700684-3.0870972-1.5709229-4.1904907h4.4212036C9.0082397,3.7764893,9.7302856,5.3262329,9.7302856,7
	C9.7302856,8.6737061,8.9955444,10.2359009,7.7540894,11.1905518z M14.0078125,4.7026367v5.171875h-3.078125v-5.171875H14.0078125z
	 M2.8966064,4.6948242H0v5.171875h2.8966064V4.6948242z M2.3307495,9.3008423H0.5658569V5.2606812h1.7648926V9.3008423z
	 M7.9155273,5.9697266c0,0.534668-0.3965454,1.0744629-1.2828979,1.0744629c-0.3338623,0-0.7109375-0.0957642-0.9168091-0.232605
	L5.6488647,6.7670898l0.1737061-0.5753784l0.119873,0.0737305C6.149231,6.3930054,6.4182739,6.468811,6.6622925,6.468811
	c0.3660889,0,0.5935669-0.1779175,0.5935669-0.4643555c0-0.2211304-0.0919189-0.3847046-0.5630493-0.5656128
	c-0.6419067-0.227478-0.9553833-0.5719604-0.9553833-1.052002c0-0.6003418,0.4906006-1.0197754,1.1934814-1.0197754
	c0.4185791,0,0.6778564,0.1118774,0.7952271,0.1783447l0.0780029,0.0444946L7.6147461,4.1504517L7.5011597,4.088623
	c-0.121582-0.0669556-0.3223877-0.1461792-0.585083-0.1461792c-0.3864136,0-0.5236816,0.2126465-0.5236816,0.3944092
	c0,0.2406616,0.1398315,0.3685913,0.5982666,0.5461426C7.638855,5.1329346,7.9155273,5.4579468,7.9155273,5.9697266z
	 M5.8691406,9.1398315c0,0.6151733,0.3491211,0.9820557,0.9342041,0.9820557c0.1898193,0,0.3956909-0.0397949,0.5241089-0.1016846
	l0.1185913-0.0576172l0.128418,0.4906616l-0.0787964,0.0389404c-0.1356201,0.0686646-0.4075928,0.140686-0.7651978,0.140686
	c-0.8799438,0-1.4485474-0.5812988-1.4485474-1.4812012c0-0.9032593,0.6270142-1.5336914,1.5252686-1.5336914
	c0.3952637,0,0.6168213,0.0932007,0.6939697,0.1334229l0.0792236,0.0411377l-0.145752,0.4940186L7.319397,8.2305908
	c-0.0783691-0.038147-0.2478638-0.1016846-0.499939-0.1016846C6.2241821,8.1289062,5.8691406,8.5068359,5.8691406,9.1398315z"/>
</svg>
