<?xml version="1.0" encoding="utf-8"?>
<!--
 ~   Copyright (c) 2017 WSO2 Inc. (http://wso2.com) All Rights Reserved.
 ~
 ~   Licensed under the Apache License, Version 2.0 (the "License");
 ~   you may not use this file except in compliance with the License.
 ~   You may obtain a copy of the License at
 ~
 ~        http://www.apache.org/licenses/LICENSE-2.0
 ~
 ~   Unless required by applicable law or agreed to in writing, software
 ~   distributed under the License is distributed on an "AS IS" BASIS,
 ~   WITHOUT WARRANTIES OR CONDITIONS OF ANY KIND, either express or implied.
 ~   See the License for the specific language governing permissions and
 ~   limitations under the License.
-->
<svg version="1.1" id="springmediator" xmlns="http://www.w3.org/2000/svg" xmlns:xlink="http://www.w3.org/1999/xlink" x="0px"
	 y="0px" viewBox="0 0 14 14" style="enable-background:new 0 0 14 14;" xml:space="preserve">
<path d="M8.4887695,2.2639771C8.425415,2.1895752,8.3241577,2.1276245,8.2354736,2.0532227L8.1720581,1.9911499
	C8.1087646,1.9540405,8.0327759,1.9291992,7.9694214,1.9291992H7.4880371H2.6488647H1.6100464
	c-0.1646729,0-0.2913208,0.1116333-0.3167114,0.260376C1.2680664,2.350769,1.3693237,2.4995117,1.5339966,2.5366821
	c0.0126953,0,0.1140747,0.0372314,0.3421021,0.1488037c0.0253296,0.0123901,0.1265869,0.0743408,0.1646729,0.086792
	C3.3075562,3.7764893,4.0423584,5.338623,4.0423584,7c0,1.6861572-0.7601318,3.2606812-2.0142822,4.215271
	c-0.0505981,0.0372314-0.4307251,0.2355957-0.4940796,0.260437c-0.1392822,0.0619507-0.215271,0.2106934-0.1900024,0.347168
	c0.0380249,0.1487427,0.1647949,0.2478638,0.3040771,0.2478638h0.3546143h0.6714478h5.2698975
	c0.0760498,0,0.1394043-0.0123901,0.1900635-0.0619507c0.1266479-0.086792,0.2407227-0.173584,0.3546753-0.2727051
	C9.831604,10.5953979,10.6043701,8.8721313,10.6043701,7C10.6043701,5.1279297,9.831604,3.404541,8.4887695,2.2639771z
	 M7.7540894,11.1905518H3.34552C4.3463745,10.0870972,4.9164429,8.5869141,4.9164429,7
	c0-1.5993652-0.5700684-3.0870972-1.5709229-4.1904907h4.4212036C9.0082397,3.7764893,9.7302856,5.3262329,9.7302856,7
	C9.7302856,8.6737061,8.9955444,10.2359009,7.7540894,11.1905518z M14.0078125,4.7026367v5.171875h-3.078125v-5.171875H14.0078125z
	 M2.8966064,4.6948242H0v5.171875h2.8966064V4.6948242z M2.3307495,9.3008423H0.5658569V5.2606812h1.7648926V9.3008423z
	 M6.6326294,7.0441895c-0.3338623,0-0.7109375-0.0957642-0.9168091-0.232605L5.6488647,6.7670898l0.1737061-0.5753784
	l0.119873,0.0737305C6.149231,6.3930054,6.4182739,6.468811,6.6622925,6.468811
	c0.3660889,0,0.5935669-0.1779175,0.5935669-0.4643555c0-0.2211304-0.0919189-0.3847046-0.5630493-0.5656128
	c-0.6419067-0.227478-0.9553833-0.5719604-0.9553833-1.052002c0-0.6003418,0.4906006-1.0197754,1.1934814-1.0197754
	c0.4185791,0,0.6778564,0.1118774,0.7952271,0.1783447l0.0780029,0.0444946L7.6147461,4.1504517L7.5011597,4.088623
	c-0.121582-0.0669556-0.3223877-0.1461792-0.585083-0.1461792c-0.3864136,0-0.5236816,0.2126465-0.5236816,0.3944092
	c0,0.2406616,0.1398315,0.3685913,0.5982666,0.5461426c0.6481934,0.249939,0.9248657,0.5749512,0.9248657,1.086731
	C7.9155273,6.5043945,7.5189819,7.0441895,6.6326294,7.0441895z M7.1247559,7.4758911
	c-0.2797852,0-0.5185547,0.0849609-0.7050781,0.25L6.4099121,7.5266724H5.7902832l0.0053711,0.1298828
	C5.8049316,7.8713989,5.814209,8.1038208,5.814209,8.3919067v2.5800781h0.6577148V9.9182739
	c0.1586914,0.1142578,0.3613281,0.1777344,0.5825195,0.1777344c0.5566406,0,1.1552734-0.4199219,1.1552734-1.3427734
	C8.2097168,8.0130005,7.7536621,7.4758911,7.1247559,7.4758911z M6.9841309,9.5227661
	c-0.2363281,0-0.4365234-0.15625-0.4956055-0.3798828c-0.0083008-0.0449219-0.0166016-0.09375-0.0166016-0.1464844V8.6077271
	c0-0.0429688,0.0126953-0.0957031,0.0244141-0.1376953C6.5598145,8.2249146,6.7658691,8.0530396,6.998291,8.0530396
	c0.3793945,0,0.5493164,0.3613281,0.5493164,0.71875C7.5476074,9.2424927,7.3371582,9.5227661,6.9841309,9.5227661z"/>
</svg>
