<?xml version="1.0" encoding="utf-8"?>
<!--
 ~   Copyright (c) 2017 WSO2 Inc. (http://wso2.com) All Rights Reserved.
 ~
 ~   Licensed under the Apache License, Version 2.0 (the "License");
 ~   you may not use this file except in compliance with the License.
 ~   You may obtain a copy of the License at
 ~
 ~        http://www.apache.org/licenses/LICENSE-2.0
 ~
 ~   Unless required by applicable law or agreed to in writing, software
 ~   distributed under the License is distributed on an "AS IS" BASIS,
 ~   WITHOUT WARRANTIES OR CONDITIONS OF ANY KIND, either express or implied.
 ~   See the License for the specific language governing permissions and
 ~   limitations under the License.
-->
<svg version="1.1" id="storemediator" xmlns="http://www.w3.org/2000/svg" xmlns:xlink="http://www.w3.org/1999/xlink" x="0px"
	 y="0px" viewBox="0 0 14 14" style="enable-background:new 0 0 14 14;" xml:space="preserve">
<path d="M11.7146921-0.0013494v1.0700604H7.4974108v3.2228518h1.630105L7,6.4190125l-2.1274505-2.12745h1.630105
	V1.0687109H2.2853079v-1.0700604H11.7146921z M4.5901885,6.8510633c0.3664179-0.1658564,0.764595-0.2613697,1.1628947-0.3263664
	c0.949173-0.1548924,1.9286399-0.145227,2.8666801,0.0669088C8.9967394,6.6768584,9.371026,6.7965789,9.6974716,7.003489
	c0.0628748,0.0398517,0.1252537,0.0842948,0.1665668,0.1462183c0.0413132,0.061924,0.0579414,0.1451526,0.0244741,0.2116451
	C9.8648434,7.4083776,9.8202543,7.4408374,9.7763357,7.4698682C9.399498,7.718967,8.956974,7.8499832,8.5142136,7.9395428
	C7.4141378,8.1620617,6.2636728,8.1461058,5.176178,7.8685493c-0.1172738-0.0299311-0.2337866-0.063128-0.3483319-0.1022992
	C4.7131,7.7270112,4.6002655,7.6817541,4.491652,7.6277046c-0.1077623-0.0536261-0.2113485-0.116003-0.3071499-0.1889935
	c-0.0214477-0.0163403-0.0477605-0.032711-0.0648584-0.0537705C4.107914,7.3704929,4.1051569,7.3484941,4.1003356,7.3310251
	C4.0850778,7.2757425,4.0970907,7.21559,4.1237597,7.1657553C4.128634,7.1566477,4.1340365,7.1478219,4.1399465,7.1393495
	C4.1863599,7.0728164,4.256557,7.0271883,4.3266964,6.9864287C4.4123039,6.9366808,4.5002904,6.8917546,4.5901885,6.8510633z
	 M6.9339571,8.5733986C4.784102,8.5292549,4.1113863,7.991991,4.1113863,7.991991s-0.0126309,1.1746311,0,1.3093557
	c0.9905686,0.8222866,3.0058894,0.7343035,3.3667345,0.7112913C8.2443972,9.97225,9.2672853,9.8144598,9.8879423,9.299242
	c0.0126305-0.1347246,0-1.3093557,0-1.3093557S9.1880388,8.549037,6.9339571,8.5733986z M6.9339571,10.4932261
	C4.784102,10.4490824,4.1113863,9.9118185,4.1113863,9.9118185s-0.0126309,1.1746311,0,1.3093557
	c0.9905686,0.8222866,3.0058894,0.7343035,3.3667345,0.7112913c0.7662764-0.0403881,1.7891645-0.1981773,2.4098215-0.7133961
	c0.0126305-0.1347246,0-1.3093557,0-1.3093557S9.1880388,10.4688644,6.9339571,10.4932261z M6.9339571,12.5477781
	c-2.1498551-0.0441437-2.8225713-0.5814075-2.8225713-0.5814075s-0.0126305,1.1746321,0,1.3093567
	c0.9905686,0.8222866,3.0058899,0.7343025,3.366735,0.7112904c0.7662764-0.0403872,1.7891645-0.1981783,2.4098215-0.7133961
	c0.0126305-0.1347246,0-1.3093557,0-1.3093557S9.1880388,12.5234175,6.9339571,12.5477781z"/>
</svg>
