<?xml version="1.0" encoding="utf-8"?>
<!--
 ~   Copyright (c) 2017 WSO2 Inc. (http://wso2.com) All Rights Reserved.
 ~
 ~   Licensed under the Apache License, Version 2.0 (the "License");
 ~   you may not use this file except in compliance with the License.
 ~   You may obtain a copy of the License at
 ~
 ~        http://www.apache.org/licenses/LICENSE-2.0
 ~
 ~   Unless required by applicable law or agreed to in writing, software
 ~   distributed under the License is distributed on an "AS IS" BASIS,
 ~   WITHOUT WARRANTIES OR CONDITIONS OF ANY KIND, either express or implied.
 ~   See the License for the specific language governing permissions and
 ~   limitations under the License.
-->
<svg version="1.1" id="throttlemediator" xmlns="http://www.w3.org/2000/svg" xmlns:xlink="http://www.w3.org/1999/xlink" x="0px"
	 y="0px" viewBox="0 0 14 14" style="enable-background:new 0 0 14 14;" xml:space="preserve">
<path d="M3.1906128,2.9666138H0.6885986v2.5019531h2.5020142V2.9666138z M2.6722412,4.9502563h-1.465271v-1.465271
	h1.465271V4.9502563z M2.5089111,5.7489624H0v2.5020142h2.5089111V5.7489624z M1.9905396,7.732605h-1.472168V6.267334h1.472168
	V7.732605z M0.6885986,11.0333862h2.5020142V8.5313721H0.6885986V11.0333862z M1.2069702,9.0497437h1.465271v1.465271h-1.465271
	V9.0497437z M8.7156372,8.2509766h2.5019531V5.7489624H8.7156372V8.2509766z M9.2340088,6.267334h1.46521v1.465271h-1.46521
	V6.267334z M11.4979858,5.7455444v2.5089111H14V5.7455444H11.4979858z M13.4816284,7.736084h-1.465271V6.263916h1.465271V7.736084z
	 M7.7453613,5.5728149C7.7067871,5.5195312,7.6641235,5.4674683,7.6169434,5.416748
	C7.578186,5.3751831,7.5349121,5.3336182,7.4718018,5.3060913c-0.0081177-0.003479-0.0164795-0.0066528-0.0250854-0.0095825
	C7.3994751,5.2807617,7.3423462,5.2736206,7.289917,5.2826538C7.2811279,5.2841797,7.2722778,5.2869263,7.2628174,5.2886963
	C7,5.2871704,6.2412109,5.2832031,6.1226807,5.2891846c-0.2171631-0.0014038-1.0391235-0.0059204-1.1766357,0
	c-0.0838623-0.0004883-1.1043091-0.007019-1.2269287,0.0001221c-0.7803345,0.586731-0.6968384,1.7804565-0.6750488,1.9942017
	c0.0383301,0.4539185,0.1881104,1.0598145,0.677063,1.4274292c0.1185303,0.006958,1.0736694,0.0010986,1.2144165,0.0001831
	c0.1143799,0.0067139,1.0131836,0.0014648,1.2021484,0.0002441c0.1432495,0.0053711,0.8705444,0.0016479,1.1270752,0.0001831
	c0.062439,0.0184326,0.1394653,0.0091553,0.1972046-0.0148926C7.5206909,8.6721802,7.5628662,8.6352539,7.600708,8.5980225
	c0.1963501-0.1933594,0.3099976-0.4150391,0.3908691-0.6383667c0.1112671-0.3070068,0.1638794-0.6213379,0.1638184-0.9361572
	c0-0.2550049-0.0344849-0.5102539-0.1002808-0.7618408C7.9934082,6.0256958,7.902832,5.789856,7.7453613,5.5728149z
	 M7.7410278,7.9243164C7.6503296,8.1746826,7.5368042,8.3614502,7.383728,8.512207
	C7.3778076,8.5180664,7.3668213,8.5288086,7.3546753,8.5392456C7.180603,8.3688965,7.0596313,8.1598511,6.9641724,7.8653564
	C6.8709106,7.5776367,6.8236694,7.2839966,6.8236694,6.9926147c0-0.3527832,0.0689697-0.7003174,0.2050171-1.03302
	c0.0267334-0.0653687,0.0562744-0.1303101,0.0912476-0.1940918c0.0366211-0.0668945,0.0753784-0.1256104,0.1184082-0.1796265
	c0.0350342-0.0439453,0.0732422-0.0848389,0.1177979-0.12677c0.015686,0.0135498,0.0304565,0.0294189,0.0386963,0.038208
	C7.4376831,5.543335,7.4763184,5.5906372,7.5113525,5.6389771C7.6400757,5.8164673,7.7322998,6.022522,7.8015747,6.2874756
	c0.06427,0.2460327,0.0969238,0.4936523,0.0969238,0.736145C7.8984985,7.3328857,7.84552,7.6359253,7.7410278,7.9243164z"/>
</svg>
