<?xml version="1.0" encoding="utf-8"?>
<!--
 ~   Copyright (c) 2017 WSO2 Inc. (http://wso2.com) All Rights Reserved.
 ~
 ~   Licensed under the Apache License, Version 2.0 (the "License");
 ~   you may not use this file except in compliance with the License.
 ~   You may obtain a copy of the License at
 ~
 ~        http://www.apache.org/licenses/LICENSE-2.0
 ~
 ~   Unless required by applicable law or agreed to in writing, software
 ~   distributed under the License is distributed on an "AS IS" BASIS,
 ~   WITHOUT WARRANTIES OR CONDITIONS OF ANY KIND, either express or implied.
 ~   See the License for the specific language governing permissions and
 ~   limitations under the License.
-->
<svg version="1.1" id="urlrewritemediator" xmlns="http://www.w3.org/2000/svg" xmlns:xlink="http://www.w3.org/1999/xlink" x="0px"
	 y="0px" viewBox="0 0 14 14" style="enable-background:new 0 0 14 14;" xml:space="preserve">
<path d="M4.3247681,1.9484061L4.1738281,1.9515189H3.8966064L3.8934937,1.9484061L3.8842773,1.9515189H3.3852539
	L3.3822021,1.9484061C3.2374268,1.9515189,3.1203613,1.8344535,3.1203613,1.6865653
	c0-0.135498,0.095459-0.2433472,0.218689-0.2617798c0.0154419,0.0030518,0.0308228,0,0.0431519,0l1.0010986-0.0031128
	c0.1355591,0.0123291,0.2433472,0.1262817,0.2433472,0.2680054c0,0.1416626-0.1201172,0.2618408-0.2648926,0.258728
	L4.3278198,1.9515189L4.3247681,1.9484061z M3.835022,2.1240041H3.3605957
	C3.2497559,2.2718313,3.0710449,2.3704031,2.8739624,2.3704031h-1.842041
	c-0.341919-0.0030518-0.6130371-0.2802734-0.6160889-0.6221923c0-0.3327026,0.2741699-0.6129761,0.6129761-0.6129761h1.8482056
	c0.12323,0,0.2433472,0.0400391,0.3388062,0.1108398h0.5545044C3.5947266,0.9288138,3.2589722,0.7224539,2.8739624,0.7193411
	h-1.842041C0.4620361,0.7224539,0.0030518,1.1814383,0,1.7512625c0,0.5667723,0.4620361,1.034973,1.0319214,1.0319213h1.842041
	C3.3082886,2.7862356,3.6871338,2.5121267,3.835022,2.1240041z M4.9038696,1.1352347h1.8358765
	C7.081665,1.1382865,7.3588867,1.4155082,7.3619995,1.7512625c0,0.3388671-0.2803345,0.6191405-0.6192017,0.6191405h-1.84198
	c-0.1971436,0-0.3727417-0.095459-0.4866943-0.2463989H3.9397583c0.1478271,0.3881226,0.5297852,0.6591797,0.9610596,0.6591797
	h1.84198c0.5668335,0,1.0319214-0.4651489,1.0319214-1.0319213C7.777832,1.1814383,7.3096313,0.7193411,6.7427979,0.7193411
	h-1.84198c-0.381958,0-0.723877,0.2125854-0.8933105,0.5298464h0.5421143
	C4.6481934,1.1752738,4.7683105,1.1352347,4.9038696,1.1352347z M6.7734375,12.672039H4.057251
	c-0.5042114-0.0045776-0.9038696-0.4133911-0.9085083-0.9175415c0-0.4906006,0.4042969-0.9038696,0.9038696-0.9038696h2.7253418
	c0.1817017,0,0.3588257,0.059021,0.4996948,0.1635132h0.8175659c-0.2589111-0.4678955-0.7540283-0.7722168-1.3217773-0.7767334
	H4.057251c-0.840332,0.0045166-1.5171509,0.6813354-1.5216675,1.5216064c0,0.8358154,0.6813354,1.5261841,1.5216675,1.5216064
	h2.7161865c0.6404419,0.0045776,1.1990967-0.3996582,1.4171753-0.9719849H7.4911499
	C7.3275757,12.5267143,7.0641479,12.672039,6.7734375,12.672039z M8.9127808,12.0496635l0.0045776,0.0046387l0.0499268-0.0046387
	c0.213501,0.0046387,0.390625-0.1724854,0.390625-0.3814697c0-0.2089233-0.1589355-0.3770142-0.3588257-0.3952026
	l-1.4761963,0.0045776c-0.0181885,0-0.0408325,0.0045166-0.0635986,0c-0.1816406,0.0272827-0.3225098,0.1862183-0.3225098,0.3861084
	c0,0.2179565,0.1726074,0.390625,0.3861084,0.3859863l0.0045166,0.0046387h0.7358398l0.0136719-0.0046387l0.0045166,0.0046387
	h0.4087524L8.9127808,12.0496635z M12.4784546,10.2374077H9.762207c-0.5632324,0-1.0674438,0.3134155-1.3172607,0.78125h0.7993774
	c0.1453857-0.1090088,0.3225708-0.1680298,0.5223999-0.1680298h2.7070923
	c0.5042114,0.0044556,0.9129639,0.413269,0.9176025,0.9083862c0,0.4996338-0.4133911,0.9130249-0.9129639,0.9130249H9.762207
	c-0.2907104,0-0.5496216-0.1408691-0.7176514-0.3634033H8.3450317c0.2180176,0.5723267,0.78125,0.9719849,1.4171753,0.9719849
	h2.7162476C13.3141479,13.2806206,14,12.5948296,14,11.7590141C14.0045776,10.9187431,13.3141479,10.2374077,12.4784546,10.2374077z
	 M9.1346436,2.1825368h-0.600647v0.600647h0.600647V2.1825368z M10.4109497,2.1825368H9.7975464v0.6134033h0.6134033V2.1825368z
	 M11.6808472,2.1825368h-0.6134033v0.6134033h0.6134033V2.1825368z M11.8637085,7.9446831h-1.2255249V3.3382986H9.5703125v4.6063843
	H8.3447876l1.7594604,1.7594604L11.8637085,7.9446831z"/>
</svg>
