<?xml version="1.0" encoding="utf-8"?>
<!--
 ~   Copyright (c) 2017 WSO2 Inc. (http://wso2.com) All Rights Reserved.
 ~
 ~   Licensed under the Apache License, Version 2.0 (the "License");
 ~   you may not use this file except in compliance with the License.
 ~   You may obtain a copy of the License at
 ~
 ~        http://www.apache.org/licenses/LICENSE-2.0
 ~
 ~   Unless required by applicable law or agreed to in writing, software
 ~   distributed under the License is distributed on an "AS IS" BASIS,
 ~   WITHOUT WARRANTIES OR CONDITIONS OF ANY KIND, either express or implied.
 ~   See the License for the specific language governing permissions and
 ~   limitations under the License.
-->
<svg version="1.1" id="validatemediator" xmlns="http://www.w3.org/2000/svg" xmlns:xlink="http://www.w3.org/1999/xlink" x="0px"
	 y="0px" viewBox="0 0 14 14" style="enable-background:new 0 0 14 14;" xml:space="preserve">
<path d="M13.0599976,1.7399902C12.8300171,0.7399902,11.9400024,0,10.8699951,0s-1.960022,0.7399902-2.1799927,1.7399902H5.0999756
	V0.9099731H2.4299927v2.6699829h2.6699829V2.7399902h3.5900269c0.2199707,1,1.1099854,1.75,2.1799927,1.75
	s1.960022-0.75,2.1900024-1.75H14v-1H13.0599976z M12.6199951,2.2399902c0,0.1699829-0.0299683,0.3399658-0.0899658,0.5
	c-0.2000122,0.7199707-0.8600464,1.25-1.6600342,1.25c-0.789978,0-1.4500122-0.5300293-1.6500244-1.25
	c-0.0599976-0.1600342-0.0899658-0.3300171-0.0899658-0.5s0.0299683-0.3400269,0.0899658-0.5
	C9.4199829,1.0199585,10.0800171,0.5,10.8699951,0.5s1.460022,0.5199585,1.6600342,1.2399902
	C12.5900269,1.8999634,12.6199951,2.0700073,12.6199951,2.2399902z M11.6500244,1.3599854l0.3399658,0.3400269l-0.039978,0.039978
	l-1,1l-0.3800049,0.3800049l-0.3800049-0.3800049L9.7600098,2.3099976l0.3300171-0.3400269l0.4799805,0.4800415l0.7000122-0.710022
	L11.6500244,1.3599854z M11.6799927,11.2600098l-0.5,0.5l0.5,0.5L11.9199829,12.5l-0.3099976,0.3099976l-0.539978-0.5499878
	l-0.2000122-0.2000122l-0.2000122,0.2000122l-0.539978,0.5499878L9.8200073,12.5l0.2399902-0.2399902l0.5100098-0.5l-0.5100098-0.5
	l-0.2399902-0.2400513l0.3099976-0.3099976l0.5499878,0.5500488l0.1900024,0.1900024l0.1900024-0.1900024l0.5499878-0.5500488
	l0.3099976,0.3099976L11.6799927,11.2600098z M10.8900146,8.3399658H8.2199707V7.4899902v-1V5.6599731h2.6700439V8.3399658z
	 M10.8699951,9.5100098c-1.0700073,0-1.960022,0.75-2.1799927,1.75H5.0999756v-0.8400269H2.4299927v2.6699829h2.6699829v-0.8299561
	h3.5900269C8.9099731,13.2600098,9.7999878,14,10.8699951,14s1.960022-0.7399902,2.1900024-1.7399902H14v-1h-0.9400024
	C12.8300171,10.2600098,11.9400024,9.5100098,10.8699951,9.5100098z M12.6199951,11.7600098
	c0,0.1699829-0.0299683,0.3399658-0.0899658,0.5C12.3300171,12.9799805,11.6599731,13.5,10.8699951,13.5
	s-1.4500122-0.5200195-1.6500244-1.2399902c-0.0599976-0.1600342-0.0899658-0.3300171-0.0899658-0.5
	c0-0.1700439,0.0299683-0.3400269,0.0899658-0.5c0.2000122-0.7200317,0.8600464-1.25,1.6500244-1.25
	c0.7999878,0,1.460022,0.5299683,1.6600342,1.25C12.5900269,11.4199829,12.6199951,11.5899658,12.6199951,11.7600098z
	 M7.7199707,6.4899902v1H7.1300049v-1H7.7199707z M6.6300049,6.4899902v1H6.0300293v-1H6.6300049z M5.5300293,7.4899902H4.9299927
	v-1h0.6000366V7.4899902z M1.7700195,8.3399658V7.4899902H0v-1h1.7700195V5.6599731h2.6599731v0.8300171v1v0.8499756H1.7700195z"/>
</svg>
