<?xml version="1.0" encoding="utf-8"?>
<!--
 ~   Copyright (c) 2017 WSO2 Inc. (http://wso2.com) All Rights Reserved.
 ~
 ~   Licensed under the Apache License, Version 2.0 (the "License");
 ~   you may not use this file except in compliance with the License.
 ~   You may obtain a copy of the License at
 ~
 ~        http://www.apache.org/licenses/LICENSE-2.0
 ~
 ~   Unless required by applicable law or agreed to in writing, software
 ~   distributed under the License is distributed on an "AS IS" BASIS,
 ~   WITHOUT WARRANTIES OR CONDITIONS OF ANY KIND, either express or implied.
 ~   See the License for the specific language governing permissions and
 ~   limitations under the License.
-->
<svg version="1.1" id="xquerymediator" xmlns="http://www.w3.org/2000/svg" xmlns:xlink="http://www.w3.org/1999/xlink" x="0px"
	 y="0px" viewBox="0 0 14 14" style="enable-background:new 0 0 14 14;" xml:space="preserve">
<path d="M13.8760138,6.7633281c-0.171916-0.4146342-0.4854374-0.7382798-0.9001331-0.9203186
	c-0.4146347-0.1719155-0.8697624-0.1719155-1.2945204-0.0101237c-0.4146957,0.1719155-0.7383413,0.4854374-0.9102564,0.9001331
	c-0.0505562,0.1314831-0.0909891,0.2629657-0.1112356,0.3944488c-0.0708036,0.4146342,0.0202465,0.829268,0.2325945,1.1832843
	L9.8204145,9.3726768l0.5360546,0.5360556l1.0821724-1.0720491c0.0707417,0.0404329,0.1415443,0.0808649,0.2224712,0.1112356
	c0.21241,0.0909891,0.4348812,0.1314831,0.6574144,0.1314831c0.0909891,0,0.171916-0.0101233,0.2629042-0.0303707
	c0.6978474-0.2022858,1.0821724-0.5258694,1.2844582-1.0012455C14.0378056,7.633152,14.0479288,7.1780238,13.8760138,6.7633281z
	 M13.4006376,7.8556237c-0.1213589,0.2832131-0.3539543,0.5158076-0.6472292,0.6270432
	c-0.212409,0.0910511-0.4450045,0.1112366-0.6675377,0.0708036c-0.0808649-0.0202475-0.1617918-0.0505562-0.2325954-0.0809269
	c-0.3640776-0.1516685-0.6067963-0.4753137-0.6775999-0.82933c-0.0606794-0.232595-0.040494-0.4753137,0.0606804-0.7079086
	c0.1213589-0.2933364,0.3438301-0.5158081,0.637167-0.6270437c0.1415443-0.0606799,0.2932749-0.0910506,0.4450045-0.0910506
	c0.1516685,0,0.3135223,0.0303707,0.4550667,0.0910506c0.2933369,0.1213593,0.5158081,0.3539543,0.6371679,0.6472292
	c0.0506172,0.1416063,0.0809269,0.2933364,0.0809269,0.4450045C13.4916887,7.5522251,13.4613791,7.7038937,13.4006376,7.8556237z
	 M8.9506521,10.2525625l0.5359936,0.5360556L8.3842878,11.890976l-0.5360551-0.5359936L8.9506521,10.2525625z M9.1326904,5.6002908
	c0.0202475-0.0303707,0.0404329-0.0606799,0.0505562-0.0910506c0.384325-0.9101949-0.040432-1.9620581-0.9506893-2.3565066
	c-0.4348807-0.182039-0.9203181-0.192101-1.3653231-0.010062c-0.4450045,0.182039-0.7990208,0.5258698-0.9810596,0.9607511
	C5.643456,4.6799107,5.7243824,5.3069544,6.0379043,5.7924533L2.7610791,9.0692787
	C2.6801522,9.0085993,2.5891635,8.9580431,2.4981134,8.9175482C2.2351475,8.8063126,1.9519963,8.7860661,1.6890305,8.8467455
	C1.2743347,8.9276724,0.9102567,9.210885,0.7383413,9.6255188C0.7079706,9.7064457,0.6776616,9.7772493,0.667538,9.8581142
	c-0.1416065,0.6169825,0.1719154,1.2642117,0.7787738,1.5170536c0.1719154,0.0809269,0.3438309,0.1112976,0.5258698,0.1112976
	c0.515808,0,1.0113689-0.3034601,1.2339021-0.8192062c0.1314831-0.3135223,0.1416066-0.6675386,0.0201855-0.9911842
	l3.3577523-3.3577518C6.6649485,6.3790026,6.7458749,6.419497,6.8368635,6.4599295
	c0.2225332,0.0910506,0.4652519,0.1416068,0.6978474,0.1416068c0.0303707,0,0.0708032,0,0.1011739-0.0101237
	C8.2932377,6.5307326,8.8090458,6.1969638,9.1326904,5.6002908z M7.029026,5.9947395
	c-0.3135219-0.1314831-0.5562406-0.384325-0.6877232-0.7079706c-0.1314831-0.3135219-0.1213593-0.6675382,0.0101237-0.98106
	c0.1314826-0.3135219,0.384325-0.566364,0.6978469-0.6877234c0.1617918-0.0708034,0.3236451-0.1011124,0.4854374-0.1011124
	c0.171977,0,0.3438926,0.0404327,0.5056839,0.1011124C8.687686,3.9011984,9.0012083,4.6597252,8.7180567,5.3069544
	C8.4449673,5.9643688,7.6864409,6.267767,7.029026,5.9947395z M6.9784703,12.2247448l0.5360551,0.5359936l-0.9305038,0.9305038
	H6.2401905l-0.364078-0.3640785L6.9784703,12.2247448z M2.0531085,3.9315073
	c0.0809269,0.0303707,0.161792,0.0606797,0.2528422,0.0708034c0.161792,0.0606794,0.3236456,0.0809264,0.4854374,0.0809264
	c0.2427187,0,0.4854991-0.0505557,0.7079706-0.1416063c0.4753754-0.182039,0.8394537-0.5461168,1.0316162-1.0113688
	c0.2022858-0.4652519,0.2022858-0.9709365,0.0101233-1.4462502C4.3590593,1.01876,3.9949195,0.6546819,3.5297294,0.4625194
	C2.5790401,0.0478853,1.4664973,0.5029519,1.0619867,1.4536412C0.8900096,1.8582134,0.8698242,2.2930946,0.9810599,2.6774197
	C1.1226664,3.2235367,1.5069915,3.6989121,2.0531085,3.9315073z M1.527177,1.6559273
	c0.2225332-0.5259316,0.7282177-0.8394535,1.2743345-0.8394535c0.1719155,0,0.3540163,0.0303707,0.5360553,0.1112975
	c0.6978469,0.2932748,1.0315542,1.1023574,0.7281561,1.810328C3.7724481,3.4359465,2.9633653,3.7595918,2.2553947,3.4663172
	C1.5575476,3.1628571,1.2237786,2.3537743,1.527177,1.6559273z M1.6384745,4.2147202L0.5360551,5.3170776L0,4.7810845
	l1.1024193-1.1024194L1.6384745,4.2147202z"/>
</svg>
