<?xml version="1.0" encoding="utf-8"?>
<!--
 ~   Copyright (c) 2017 WSO2 Inc. (http://wso2.com) All Rights Reserved.
 ~
 ~   Licensed under the Apache License, Version 2.0 (the "License");
 ~   you may not use this file except in compliance with the License.
 ~   You may obtain a copy of the License at
 ~
 ~        http://www.apache.org/licenses/LICENSE-2.0
 ~
 ~   Unless required by applicable law or agreed to in writing, software
 ~   distributed under the License is distributed on an "AS IS" BASIS,
 ~   WITHOUT WARRANTIES OR CONDITIONS OF ANY KIND, either express or implied.
 ~   See the License for the specific language governing permissions and
 ~   limitations under the License.
-->
<svg version="1.1" id="xsltmediator" xmlns="http://www.w3.org/2000/svg" xmlns:xlink="http://www.w3.org/1999/xlink" x="0px" y="0px"
	 viewBox="0 0 14 14" style="enable-background:new 0 0 14 14;" xml:space="preserve">
<path d="M2.8966064,4.25H0v5.171875h2.8966064V4.25z M2.3307495,8.8560181H0.5658569V4.8158569h1.7648926V8.8560181z
	 M14.0078125,4.2578125v5.171875h-3.078125v-5.171875H14.0078125z M5.3479614,4.1747437
	c-0.1671753,0-0.2985229-0.1363525-0.2985229-0.3099976c0-0.1610718,0.1313477-0.3099365,0.2985229-0.3099365h2.5194092
	c0.1552124,0,0.2984619,0.1488647,0.2984619,0.3099365c0,0.173645-0.1432495,0.3099976-0.2984619,0.3099976H5.3479614z
	 M8.2136841,1.6083984L8.1538696,1.5463257C8.0942383,1.5092163,8.022583,1.484375,7.9628906,1.484375H7.5091553H2.947937H1.968811
	c-0.1552124,0-0.2745972,0.1116333-0.2985229,0.260376C1.6464844,1.9059448,1.7419434,2.0546875,1.8971558,2.0918579
	c0.0119629,0,0.1074829,0.0372314,0.3224487,0.1488037c0.0238647,0.0123901,0.1193237,0.0743408,0.1552124,0.086792
	C3.5688477,3.331665,4.2614136,4.8937988,4.2614136,6.5551758c0,1.6861572-0.7164917,3.2606812-1.8985596,4.215271
	c-0.0477295,0.0372314-0.4060059,0.2355957-0.4656982,0.260437c-0.1312866,0.0619507-0.2029419,0.2106934-0.1790771,0.347168
	c0.0358276,0.1487427,0.1552734,0.2478638,0.2865601,0.2478638h0.3342896h0.6328735h4.9671631
	c0.0716553,0,0.1314087-0.0123901,0.1791382-0.0619507c0.1193848-0.086792,0.2268677-0.173584,0.3342896-0.2727051
	c1.265686-1.140686,1.9940796-2.8639526,1.9940796-4.736084c0-1.8720703-0.7283936-3.595459-1.9940796-4.7360229
	C8.3927002,1.744751,8.2972412,1.6828003,8.2136841,1.6083984z M7.7599487,10.7457275H3.6046143
	c0.9433594-1.1034546,1.4806519-2.6036377,1.4806519-4.1905518c0-1.5993652-0.5372925-3.0870972-1.4806519-4.1904907h4.1672363
	c1.170166,0.96698,1.850769,2.5167236,1.850769,4.1904907C9.6226196,8.2288818,8.9300537,9.7910767,7.7599487,10.7457275z
	 M6.2315063,6.0344238h2.5194092c0.1552124,0,0.2985229,0.1488647,0.2985229,0.3099365
	c0,0.173584-0.1433105,0.3099365-0.2985229,0.3099365H6.2315063c-0.1671753,0-0.2985229-0.1363525-0.2985229-0.3099365
	C5.9329834,6.1832886,6.0643311,6.0344238,6.2315063,6.0344238z M8.2614136,8.8239746
	c0,0.173584-0.1313477,0.3099365-0.2985229,0.3099365H5.4554443c-0.1671753,0-0.2985229-0.1363525-0.2985229-0.3099365
	c0-0.1611328,0.1313477-0.3099365,0.2985229-0.3099365h2.5074463C8.1300659,8.5140381,8.2614136,8.6628418,8.2614136,8.8239746z"/>
</svg>
