<?xml version="1.0" encoding="utf-8"?>
<!-- Generator: Adobe Illustrator 16.0.4, SVG Export Plug-In . SVG Version: 6.00 Build 0)  -->
<!DOCTYPE svg PUBLIC "-//W3C//DTD SVG 1.1//EN" "http://www.w3.org/Graphics/SVG/1.1/DTD/svg11.dtd">
<svg version="1.1" id="Layer_1" xmlns="http://www.w3.org/2000/svg" xmlns:xlink="http://www.w3.org/1999/xlink" x="0px" y="0px"
	 width="104.197px" height="40.703px" viewBox="0 0 104.197 40.703" enable-background="new 0 0 104.197 40.703"
	 xml:space="preserve">
<g>
	<g>
		<path fill="#FF5000" d="M75.706,31.294c8.05,0,14.562-6.603,14.562-14.562c0-8.05-6.604-14.653-14.562-14.653
			c-8.05,0-14.652,6.603-14.652,14.653S67.656,31.294,75.706,31.294z"/>
		<polyline fill="none" stroke="#000000" stroke-width="1.9863" points="90.268,16.823 84.933,16.823 81.767,22.522 75.706,7.778 
			70.912,18.542 61.234,18.542 		"/>
		<path fill="#FF5000" d="M40.973,1.99h1.267l-1.267,3.075V1.99L40.973,1.99z M40.973,27.858c0.543,0.995,1.267,1.81,1.989,2.442
			c1.628,1.355,3.618,1.988,6.061,1.988c2.623,0,4.794-0.904,6.604-2.623c1.81-1.809,2.713-3.979,2.713-6.513
			c0-2.261-0.724-4.07-2.172-5.245c-1.445-1.176-2.983-2.171-4.702-2.895l-0.813-0.453l-0.815-0.36
			c-1.537-0.814-2.803-1.537-3.798-2.17c-0.995-0.724-1.447-1.718-1.447-2.985c0-1.357,0.543-2.351,1.538-3.166
			c0.995-0.814,2.262-1.266,3.618-1.266c0.904,0,1.719,0.181,2.352,0.543c0.633,0.361,1.267,0.905,1.899,1.718l0.271,0.452
			c0.09,0.09,0.181,0.181,0.36,0.452l2.623-1.718c-0.903-1.539-1.897-2.714-3.256-3.437c-1.267-0.814-2.713-1.176-4.161-1.176
			c-2.531,0-4.612,0.724-6.239,2.17c-1.628,1.447-2.442,3.256-2.442,5.517c0,2.082,0.724,3.709,2.171,4.885
			c1.447,1.176,2.984,2.081,4.703,2.803l0.543,0.271l0.542,0.18c1.628,0.814,2.984,1.628,4.07,2.353
			c1.086,0.813,1.719,1.898,1.719,3.438c0,1.718-0.543,3.165-1.719,4.341s-2.622,1.719-4.342,1.719c-1.537,0-2.804-0.451-3.89-1.447
			c-0.995-0.994-1.719-2.352-2.171-4.16l-1.99,0.634v3.708L40.973,27.858L40.973,27.858z M11.578,24.332l9.407-23.97l8.864,23.97
			l8.772-22.434h2.352v3.076L29.667,33.376L20.894,9.407l-9.406,23.969L0,1.99h3.618L11.578,24.332L11.578,24.332z M40.973,24.332
			l-1.267,0.36c0.271,1.177,0.725,2.263,1.267,3.257V24.332z"/>
		<path fill="#FFFFFF" d="M87.736,4.885C84.48,1.719,80.5,0.09,75.706,0c-0.091,0-0.181,0-0.181,0c-2.984,0-5.789,0.724-8.412,2.261
			c-2.623,1.538-4.613,3.528-6.15,6.241c-1.446,2.623-2.262,5.517-2.262,8.593c0,4.614,1.629,8.592,4.885,11.849
			s7.326,4.884,12.029,4.884l0,0c4.703,0,8.684-1.627,11.939-4.884c3.257-3.257,4.885-7.235,4.885-11.94
			C92.62,12.121,90.992,8.141,87.736,4.885z M87.555,23.88c-1.177,2.078-2.805,3.797-4.976,4.974c-2.08,1.177-4.432,1.81-6.874,1.81
			h-0.091c-3.709,0-6.965-1.356-9.588-3.979s-3.979-5.879-3.979-9.678c0-2.532,0.634-4.884,1.81-6.965
			c1.177-2.081,2.895-3.798,4.975-4.975c2.171-1.265,4.343-1.898,6.784-1.898c0,0,0,0,0.091,0c2.353,0,4.612,0.633,6.784,1.898
			c2.17,1.267,3.799,2.895,4.975,4.975c1.177,2.081,1.81,4.342,1.81,6.965C89.363,19.446,88.73,21.798,87.555,23.88z"/>
		<path fill="#FFFFFF" d="M93.797,15.829c0.724-0.182,1.537-0.363,2.441-0.363c2.261,0,4.16,0.724,5.518,2.171
			c1.356,1.447,2.08,3.167,2.08,5.155c0,1.447-0.36,2.715-0.995,3.979c-0.724,1.267-1.989,2.896-3.89,4.976l-6.15,6.604h11.396
			v2.352H87.373l9.407-10.039c1.899-2.082,3.166-3.527,3.708-4.522c0.543-0.995,0.904-1.989,0.904-3.165
			c0-1.355-0.542-2.624-1.536-3.619c-0.995-0.995-2.354-1.537-3.8-1.537c-0.814,0-1.627,0.181-2.353,0.452
			c0.092-0.634,0.092-1.176,0.092-1.809C93.797,16.281,93.797,16.1,93.797,15.829z"/>
	</g>
</g>
</svg>
